<svg width="43" height="43" viewBox="0 0 43 43" fill="none" xmlns="http://www.w3.org/2000/svg">
<rect width="43" height="43" rx="5" fill="#1C2540"/>
<g opacity="0.5">
<path d="M13 16H15H31" stroke="#BBB9D1" stroke-width="2" stroke-linecap="round" stroke-linejoin="round"/>
<path d="M30 16C30 15.4477 29.5523 15 29 15C28.4477 15 28 15.4477 28 16H30ZM16 16C16 15.4477 15.5523 15 15 15C14.4477 15 14 15.4477 14 16H16ZM17 16C17 16.5523 17.4477 17 18 17C18.5523 17 19 16.5523 19 16H17ZM25 16C25 16.5523 25.4477 17 26 17C26.5523 17 27 16.5523 27 16H25ZM28 16V30H30V16H28ZM28 30C28 30.5523 27.5523 31 27 31V33C28.6569 33 30 31.6569 30 30H28ZM27 31H17V33H27V31ZM17 31C16.4477 31 16 30.5523 16 30H14C14 31.6569 15.3431 33 17 33V31ZM16 30V16H14V30H16ZM19 16V14H17V16H19ZM19 14C19 13.4477 19.4477 13 20 13V11C18.3431 11 17 12.3431 17 14H19ZM20 13H24V11H20V13ZM24 13C24.5523 13 25 13.4477 25 14H27C27 12.3431 25.6569 11 24 11V13ZM25 14V16H27V14H25Z" fill="#BBB9D1"/>
<path d="M20 21V27" stroke="#BBB9D1" stroke-width="2" stroke-linecap="round" stroke-linejoin="round"/>
<path d="M24 21V27" stroke="#BBB9D1" stroke-width="2" stroke-linecap="round" stroke-linejoin="round"/>
</g>
</svg>
